<?xml version="1.0" standalone="no"?><!DOCTYPE svg PUBLIC "-//W3C//DTD SVG 1.1//EN" "http://www.w3.org/Graphics/SVG/1.1/DTD/svg11.dtd"><svg t="1724651187140" class="icon" viewBox="0 0 1024 1024" version="1.1" xmlns="http://www.w3.org/2000/svg" p-id="4023" xmlns:xlink="http://www.w3.org/1999/xlink" width="200" height="200"><path d="M335.066667 548.091667l-1.654167-13.95c-2.954167-24.8875-24.125-43.658333-49.2375-43.658334-25.141667 0-46.258333 18.75-49.116667 43.6125l-1.608333 13.991667-13.704167-3.258333c-27.3875-6.516667-53.725-17.4375-78.270833-32.441667l-12.033333-7.358333 8.754166-11.0625c15.541667-19.645833 13.879167-47.854167-3.879166-65.6125a49.341667 49.341667 0 0 0-35.104167-14.55c-11.095833 0-21.983333 3.754167-30.654167 10.575l-11.054166 8.695833-7.3375-12a273.379167 273.379167 0 0 1-32.433334-78.083333l-3.333333-13.704167 14.004167-1.6625c24.958333-2.9625 43.779167-24.133333 43.779166-49.241667S53.3625 232.104167 28.404167 229.141667l-14.004167-1.6625 3.333333-13.704167a273.458333 273.458333 0 0 1 32.425-78.091667l7.3375-12 11.054167 8.695834a49.779167 49.779167 0 0 0 30.654167 10.575c13.254167 0 25.720833-5.166667 35.104166-14.55 17.754167-17.758333 19.420833-45.9625 3.879167-65.6125l-8.754167-11.0625 12.033334-7.358334c24.475-14.9625 50.804167-25.875 78.258333-32.4375l13.7125-3.275 1.6125 14.004167c2.858333 24.8625 23.975 43.6125 49.116667 43.6125 25.1125 0 46.283333-18.766667 49.2375-43.658333l1.654166-13.945834 13.6625 3.2625c27.454167 6.5625 53.7875 17.475 78.258334 32.4375l12.033333 7.358334-8.754167 11.0625c-15.541667 19.645833-13.879167 47.854167 3.879167 65.6125a49.041667 49.041667 0 0 0 35.0125 14.55c11.1125 0 22.0375-3.7625 30.766667-10.591667l11.05-8.65 7.316666 11.970833a269.991667 269.991667 0 0 1 32.320834 78.141667l3.2625 13.6625-13.95 1.654167c-24.891667 2.954167-43.658333 24.125-43.658334 49.241666s18.766667 46.283333 43.658334 49.241667l13.95 1.654167-3.2625 13.6625a269.875 269.875 0 0 1-32.320834 78.141666l-7.316666 11.970834-11.05-8.65a50.15 50.15 0 0 0-30.766667-10.591667 49 49 0 0 0-34.9875 14.525c-17.779167 17.779167-19.445833 45.9875-3.904167 65.633333l8.754167 11.0625-12.033333 7.358334c-24.470833 14.9625-50.8 25.875-78.258334 32.4375l-13.654166 3.2625z m-50.895834-82.608334c32.9125 0 61.320833 21.445833 71.029167 51.745834a245.291667 245.291667 0 0 0 47.6875-19.791667 74.466667 74.466667 0 0 1 13.579167-86.758333c14.020833-14.095833 32.741667-21.875 52.691666-21.875 11.8875 0 23.633333 2.870833 34.145834 8.2375a244.858333 244.858333 0 0 0 19.716666-47.633334c-30.3-9.7125-51.75-38.120833-51.75-71.033333s21.45-61.325 51.75-71.033333a244.858333 244.858333 0 0 0-19.716666-47.633334 75.291667 75.291667 0 0 1-34.145834 8.2375 73.816667 73.816667 0 0 1-52.7125-21.895833 74.45 74.45 0 0 1-13.554166-86.7375 245.125 245.125 0 0 0-47.6875-19.7875c-9.708333 30.3-38.116667 51.745833-71.029167 51.745833-32.9625 0-61.329167-21.441667-70.954167-51.733333a245.375 245.375 0 0 0-47.65 19.775 74.466667 74.466667 0 0 1-13.579166 86.758333 74.158333 74.158333 0 0 1-52.779167 21.875c-11.870833 0-23.5875-2.866667-34.066667-8.220833a248.233333 248.233333 0 0 0-19.779166 47.625c30.345833 9.720833 51.825 38.125 51.825 71.025S75.708333 339.683333 45.3625 349.404167a248.233333 248.233333 0 0 0 19.779167 47.625 75.05 75.05 0 0 1 34.066666-8.220834c19.933333 0 38.675 7.766667 52.779167 21.875a74.470833 74.470833 0 0 1 13.579167 86.7625 244.291667 244.291667 0 0 0 47.645833 19.783334c9.620833-30.3 37.991667-51.745833 70.958333-51.745834z m0-76.925c-60.754167 0-110.175-49.425-110.175-110.175S223.416667 168.204167 284.170833 168.204167c60.816667 0 110.291667 49.425 110.291667 110.175s-49.479167 110.179167-110.291667 110.179166z m0-195.354166c-46.966667 0-85.175 38.208333-85.175 85.175s38.208333 85.175 85.175 85.175c47.029167 0 85.291667-38.208333 85.291667-85.175s-38.2625-85.175-85.291667-85.175zM669.55 1002.5125l-1.6625-14.004167c-2.9625-24.954167-24.129167-43.775-49.233333-43.775s-46.275 18.820833-49.2375 43.775l-1.6625 14.004167-13.704167-3.333333a273.270833 273.270833 0 0 1-78.091667-32.425l-12-7.3375 8.695834-11.054167c15.504167-19.7125 13.795833-47.9875-3.975-65.754167a49.158333 49.158333 0 0 0-34.991667-14.491666c-11.095833 0-21.966667 3.766667-30.616667 10.6125l-11.0625 8.758333-7.358333-12.041667c-14.9625-24.475-25.875-50.804167-32.4375-78.258333l-3.275-13.7125 14.004167-1.6125c24.8625-2.858333 43.6125-24.025 43.6125-49.233333 0-25.141667-18.75-46.2625-43.6125-49.116667l-14.004167-1.6125 3.275-13.7125c6.558333-27.45 17.475-53.779167 32.4375-78.254167l7.358333-12.0375 11.0625 8.754167a49.5375 49.5375 0 0 0 30.616667 10.6125c13.220833 0 25.65-5.145833 34.991667-14.491667 17.770833-17.770833 19.475-46.041667 3.970833-65.758333l-8.691667-11.054167 12-7.3375a273.408333 273.408333 0 0 1 78.091667-32.425l13.704167-3.333333 1.6625 14.004167c2.9625 24.958333 24.133333 43.779167 49.2375 43.779166s46.270833-18.820833 49.233333-43.779166l1.6625-14.004167 13.704167 3.333333a275.808333 275.808333 0 0 1 78.1875 32.4125l12.079166 7.345834-8.770833 11.091666c-15.575 19.683333-13.908333 47.941667 3.879167 65.725a49.175 49.175 0 0 0 34.991666 14.491667c11.095833 0 21.966667-3.770833 30.620834-10.6125l11.0625-8.754167 7.358333 12.0375c14.966667 24.4875 25.879167 50.8125 32.433333 78.254167l3.275 13.7125-14.004166 1.6125c-24.8625 2.858333-43.6125 23.975-43.6125 49.116667 0 25.2125 18.75 46.379167 43.6125 49.233333l14.004166 1.6125-3.275 13.7125c-6.554167 27.445833-17.466667 53.775-32.433333 78.258333l-7.358333 12.041667-11.0625-8.758333a49.520833 49.520833 0 0 0-30.620834-10.6125 49.1375 49.1375 0 0 0-34.991666 14.491666c-17.7875 17.7875-19.454167 46.041667-3.879167 65.725l8.770833 11.0875-12.079166 7.35a275.729167 275.729167 0 0 1-78.1875 32.408334l-13.704167 3.333333z m-169.529167-50.729167a247.970833 247.970833 0 0 0 47.604167 19.770834c9.720833-30.345833 38.120833-51.825 71.025-51.825 32.9 0 61.3 21.475 71.020833 51.825a250.720833 250.720833 0 0 0 47.679167-19.775 74.55 74.55 0 0 1 13.6-86.85 73.979167 73.979167 0 0 1 52.670833-21.8125c11.883333 0 23.604167 2.875 34.079167 8.254166a245.233333 245.233333 0 0 0 19.7875-47.675c-30.295833-9.6375-51.733333-38.05-51.733333-71.070833 0-32.9625 21.441667-61.333333 51.733333-70.954167a245.266667 245.266667 0 0 0-19.7875-47.666666 74.8 74.8 0 0 1-34.079167 8.254166 73.9875 73.9875 0 0 1-52.670833-21.8125 74.554167 74.554167 0 0 1-13.595833-86.854166 250.741667 250.741667 0 0 0-47.683334-19.770834c-9.720833 30.345833-38.120833 51.825-71.020833 51.825-32.9 0-61.304167-21.475-71.025-51.825a248.266667 248.266667 0 0 0-47.604167 19.766667c14.541667 28.3125 9.604167 63.583333-13.670833 86.858333a73.9875 73.9875 0 0 1-52.670833 21.8125c-11.883333 0-23.604167-2.879167-34.079167-8.254166a245.329167 245.329167 0 0 0-19.791667 47.666666c30.295833 9.625 51.7375 37.991667 51.7375 70.954167 0 33.020833-21.441667 61.433333-51.7375 71.070833a244.775 244.775 0 0 0 19.791667 47.675 74.7625 74.7625 0 0 1 34.079167-8.254166c19.9 0 38.608333 7.745833 52.670833 21.8125 23.279167 23.275 28.2125 58.545833 13.670833 86.854166z m118.633334-108.8625c-60.75 0-110.175-49.479167-110.175-110.295833 0-60.75 49.425-110.175 110.175-110.175s110.175 49.425 110.175 110.175c0 60.816667-49.425 110.295833-110.175 110.295833z m0-195.470833c-46.9625 0-85.175 38.2125-85.175 85.175 0 47.029167 38.2125 85.295833 85.175 85.295833s85.175-38.266667 85.175-85.295833c0-46.9625-38.2125-85.175-85.175-85.175zM862.183333 479.15l-1.658333-13.9875c-1.758333-14.854167-14.395833-26.054167-29.395833-26.054167a29.583333 29.583333 0 0 0-29.395834 26.058334l-1.658333 13.983333-13.691667-3.308333a188.766667 188.766667 0 0 1-54.129166-22.3875l-12.008334-7.333334 8.695834-11.0625c9.241667-11.758333 8.233333-28.670833-2.35-39.3375a29.333333 29.333333 0 0 0-20.875-8.604166 29.4875 29.4875 0 0 0-18.2375 6.295833l-11.029167 8.729167-7.375-11.979167a186.95 186.95 0 0 1-22.533333-54.166667l-3.3125-13.691666 13.9875-1.658334a29.591667 29.591667 0 0 0 26.0625-29.395833 29.520833 29.520833 0 0 0-26.0625-29.279167l-13.970834-1.654166 3.2875-13.675a188.591667 188.591667 0 0 1 22.5125-54.2625l7.3875-12.1 11.079167 8.85a29.266667 29.266667 0 0 0 18.2125 6.35 29.183333 29.183333 0 0 0 20.858333-8.691667 29.604167 29.604167 0 0 0 2.35-39.220833l-8.695833-11.058334 12.008333-7.333333a188.954167 188.954167 0 0 1 54.129167-22.3875l13.6875-3.308333 1.6625 13.9875a29.583333 29.583333 0 0 0 29.395833 26.058333c15 0 27.6375-11.2 29.395834-26.058333l1.658333-13.9875 13.691667 3.308333a188.7875 188.7875 0 0 1 54.129166 22.3875l12.058334 7.3625-8.775 11.070833c-9.275 11.7-8.2625 28.529167 2.345833 39.145834a29.166667 29.166667 0 0 0 20.85 8.729166 29.575 29.575 0 0 0 18.3-6.379166l11.066667-8.775 7.366666 12.058333a188.5 188.5 0 0 1 22.508334 54.2625l3.2875 13.675-13.970834 1.654167c-14.925 1.770833-26.179167 14.358333-26.179166 29.279166 0 14.9875 11.254167 27.625 26.179166 29.395834l13.9875 1.658333-3.3125 13.691667a187.1875 187.1875 0 0 1-22.529166 54.166666l-7.345834 11.9375-11.025-8.6625a29.783333 29.783333 0 0 0-18.320833-6.325c-7.883333 0-15.291667 3.066667-20.866667 8.641667-10.591667 10.675-11.616667 27.570833-2.345833 39.258333l8.779167 11.070834-12.0625 7.3625a188.983333 188.983333 0 0 1-54.129167 22.3875l-13.679167 3.308333z m-106.25-41.0625a163.266667 163.266667 0 0 0 24.554167 10.145833 54.641667 54.641667 0 0 1 101.283333 0 163.604167 163.604167 0 0 0 24.520834-10.129166 54.8125 54.8125 0 0 1 11.629166-59.9875 54.183333 54.183333 0 0 1 38.579167-15.995834c7.366667 0 14.654167 1.508333 21.379167 4.358334a161.45 161.45 0 0 0 10.220833-24.575c-20.2375-8.145833-34.2375-27.933333-34.2375-50.65 0-22.6625 14-42.408333 34.25-50.541667-2.720833-8.4375-6.145833-16.666667-10.2375-24.629167a54.6 54.6 0 0 1-21.391667 4.391667 53.9625 53.9625 0 0 1-38.558333-16.083333 54.508333 54.508333 0 0 1-11.641667-59.875 164.004167 164.004167 0 0 0-24.5125-10.125 54.633333 54.633333 0 0 1-101.283333 0 163.833333 163.833333 0 0 0-24.55 10.145833c8.495833 20.033333 4.3875 43.8625-11.6375 59.8875a53.9875 53.9875 0 0 1-38.570833 16.054167c-7.370833 0-14.645833-1.516667-21.35-4.375a163.470833 163.470833 0 0 0-10.233334 24.620833c20.179167 8.1375 34.129167 27.875 34.129167 50.533333 0 22.708333-13.95 42.4875-34.120833 50.641667a161.958333 161.958333 0 0 0 10.220833 24.566667 54.733333 54.733333 0 0 1 21.3375-4.341667c14.5875 0 28.291667 5.666667 38.5875 15.9625a54.916667 54.916667 0 0 1 11.633333 60z m75.195834-68.075c-43.425 0-78.754167-35.329167-78.754167-78.758333 0-43.3625 35.329167-78.641667 78.754167-78.641667 43.429167 0 78.758333 35.279167 78.758333 78.641667 0 43.429167-35.329167 78.758333-78.758333 78.758333z m0-132.4c-29.641667 0-53.754167 24.0625-53.754167 53.641667 0 29.641667 24.1125 53.758333 53.754167 53.758333s53.758333-24.116667 53.758333-53.758333c0-29.575-24.116667-53.641667-53.758333-53.641667z" p-id="4024" fill="#1296db"></path></svg>